<svg xmlns="http://www.w3.org/2000/svg" width="1600" height="900" viewBox="0 0 1600 900" role="img" aria-label="Rural and accessibility collage">
  <defs>
    <linearGradient id="sky" x1="0" y1="0" x2="0" y2="1">
      <stop offset="0" stop-color="#f9f7ff"/>
      <stop offset="1" stop-color="#f2ecff"/>
    </linearGradient>
    <linearGradient id="field" x1="0" y1="0" x2="1" y2="1">
      <stop offset="0" stop-color="#d6f2d0"/>
      <stop offset="1" stop-color="#b7e1c1"/>
    </linearGradient>
    <linearGradient id="hill" x1="0" y1="0" x2="1" y2="1">
      <stop offset="0" stop-color="#c7e6ff"/>
      <stop offset="1" stop-color="#b7d8ff"/>
    </linearGradient>
  </defs>

  <rect width="1600" height="900" fill="url(#sky)"/>

  <circle cx="220" cy="160" r="80" fill="#ffe7a3"/>
  <circle cx="220" cy="160" r="120" fill="#ffe7a3" opacity="0.3"/>

  <path d="M0 560 C 220 470, 420 470, 640 540 C 860 610, 1060 640, 1600 520 L1600 900 L0 900 Z" fill="url(#field)"/>
  <path d="M0 520 C 240 420, 520 430, 760 520 C 1000 610, 1260 640, 1600 500 L1600 650 L0 650 Z" fill="url(#hill)" opacity="0.75"/>

  <g opacity="0.85">
    <rect x="1040" y="360" width="240" height="160" rx="16" fill="#f5d7b2"/>
    <polygon points="1040,360 1160,290 1280,360" fill="#f0b8a0"/>
    <rect x="1100" y="430" width="60" height="90" fill="#f2a07b"/>
    <rect x="1190" y="400" width="60" height="60" fill="#f7e9d6"/>
    <rect x="1200" y="410" width="40" height="40" fill="#c9d9ff"/>
  </g>

  <g opacity="0.8">
    <rect x="180" y="350" width="160" height="120" rx="16" fill="#f3c9c9"/>
    <polygon points="180,350 260,300 340,350" fill="#e8a2a2"/>
    <rect x="225" y="400" width="50" height="70" fill="#e28b8b"/>
  </g>

  <g opacity="0.65">
    <rect x="730" y="330" width="32" height="160" fill="#a5c6a2"/>
    <circle cx="746" cy="310" r="60" fill="#b9e3b3"/>
    <circle cx="700" cy="330" r="40" fill="#c7ebc2"/>
    <circle cx="790" cy="330" r="40" fill="#c7ebc2"/>
  </g>

  <g opacity="0.85" transform="translate(420 520)">
    <circle cx="0" cy="0" r="22" fill="#7f6ad9"/>
    <path d="M0 24 L0 90" stroke="#7f6ad9" stroke-width="10" stroke-linecap="round"/>
    <path d="M0 44 L32 28" stroke="#7f6ad9" stroke-width="10" stroke-linecap="round"/>
    <path d="M0 62 L-28 90" stroke="#7f6ad9" stroke-width="10" stroke-linecap="round"/>
    <path d="M0 62 L28 90" stroke="#7f6ad9" stroke-width="10" stroke-linecap="round"/>
    <circle cx="82" cy="94" r="36" fill="none" stroke="#7f6ad9" stroke-width="10"/>
    <circle cx="82" cy="94" r="12" fill="#7f6ad9"/>
    <path d="M28 90 L70 90" stroke="#7f6ad9" stroke-width="10" stroke-linecap="round"/>
    <path d="M70 90 L70 94" stroke="#7f6ad9" stroke-width="10" stroke-linecap="round"/>
  </g>

  <g opacity="0.8" transform="translate(1240 560)">
    <rect x="0" y="0" width="18" height="120" rx="9" fill="#6b8bd9"/>
    <circle cx="9" cy="-18" r="22" fill="#6b8bd9"/>
    <path d="M9 30 L40 60" stroke="#6b8bd9" stroke-width="10" stroke-linecap="round"/>
    <path d="M9 52 L-12 96" stroke="#6b8bd9" stroke-width="10" stroke-linecap="round"/>
  </g>

  <g opacity="0.6">
    <circle cx="520" cy="200" r="70" fill="#c9d9ff"/>
    <circle cx="620" cy="210" r="80" fill="#d9e6ff"/>
    <circle cx="720" cy="200" r="60" fill="#c9d9ff"/>
  </g>
</svg>
